<?xml version="1.0" encoding="UTF-8" standalone="no"?>
<svg
   xmlns:dc="http://purl.org/dc/elements/1.1/"
   xmlns:cc="http://creativecommons.org/ns#"
   xmlns:rdf="http://www.w3.org/1999/02/22-rdf-syntax-ns#"
   xmlns:svg="http://www.w3.org/2000/svg"
   xmlns="http://www.w3.org/2000/svg"
   xmlns:sodipodi="http://sodipodi.sourceforge.net/DTD/sodipodi-0.dtd"
   xmlns:inkscape="http://www.inkscape.org/namespaces/inkscape"
   inkscape:version="1.0 (6e3e5246a0, 2020-05-07)"
   sodipodi:docname="jvig.svg"
   id="svg314"
   xml:space="preserve"
   enable-background="new 0 0 64 64"
   viewBox="0 0 64 64"
   y="0px"
   x="0px"
   version="1.1"
   fill="#000000"
   width="100px"
   height="100px"><metadata
     id="metadata320"><rdf:RDF><cc:Work
         rdf:about=""><dc:format>image/svg+xml</dc:format><dc:type
           rdf:resource="http://purl.org/dc/dcmitype/StillImage" /></cc:Work></rdf:RDF></metadata><defs
     id="defs318" /><sodipodi:namedview
     inkscape:current-layer="g310"
     inkscape:window-maximized="1"
     inkscape:window-y="27"
     inkscape:window-x="1992"
     inkscape:cy="56.547124"
     inkscape:cx="54.498684"
     inkscape:zoom="5.6709964"
     showgrid="false"
     id="namedview316"
     inkscape:window-height="1556"
     inkscape:window-width="2808"
     inkscape:pageshadow="2"
     inkscape:pageopacity="0"
     guidetolerance="10"
     gridtolerance="10"
     objecttolerance="10"
     borderopacity="1"
     bordercolor="#666666"
     pagecolor="#ffffff" /><g
     id="g312"><g
       id="g310"><ellipse
         ry="30.847715"
         rx="30.847717"
         cy="31.999998"
         cx="32.000004"
         id="path462"
         style="fill:#ffffff;fill-rule:evenodd;stroke:#000000;stroke-width:2.30457;stroke-opacity:0.974339" /><g
         transform="translate(0.73009504,0.22423976)"
         id="g1326"><g
           id="g460"
           transform="matrix(0.7111411,0,0,0.7111411,8.5131862,9.0195882)"><g
             id="g240"><path
               id="path238"
               d="m 14.5,60 c -0.553,0 -1,-0.447 -1,-1 V 5 c 0,-0.553 0.447,-1 1,-1 0.553,0 1,0.447 1,1 v 54 c 0,0.553 -0.447,1 -1,1 z" /></g><g
             id="g244"><path
               id="path242"
               d="m 21.5,60 c -0.553,0 -1,-0.447 -1,-1 V 5 c 0,-0.553 0.447,-1 1,-1 0.553,0 1,0.447 1,1 v 54 c 0,0.553 -0.447,1 -1,1 z" /></g><g
             id="g248"><path
               id="path246"
               d="m 24.5,60 h -13 c -0.553,0 -1,-0.447 -1,-1 0,-0.553 0.447,-1 1,-1 h 13 c 0.553,0 1,0.447 1,1 0,0.553 -0.447,1 -1,1 z" /></g><g
             id="g252"><path
               id="path250"
               d="m 24.5,64 c -0.553,0 -1,-0.447 -1,-1 v -4 c 0,-0.553 0.447,-1 1,-1 0.553,0 1,0.447 1,1 v 4 c 0,0.553 -0.447,1 -1,1 z" /></g><g
             id="g256"><path
               id="path254"
               d="m 11.5,64 c -0.553,0 -1,-0.447 -1,-1 v -4 c 0,-0.553 0.447,-1 1,-1 0.553,0 1,0.447 1,1 v 4 c 0,0.553 -0.447,1 -1,1 z" /></g><g
             id="g260"><path
               id="path258"
               d="m 26.5,64 h -17 c -0.553,0 -1,-0.447 -1,-1 0,-0.553 0.447,-1 1,-1 h 17 c 0.553,0 1,0.447 1,1 0,0.553 -0.447,1 -1,1 z" /></g><g
             id="g264"><path
               id="path262"
               d="M 61.5,20 H 21.501 c -0.553,0 -1,-0.447 -1,-1 0,-0.553 0.447,-1 1,-1 H 61.5 c 0.553,0 1,0.447 1,1 0,0.553 -0.447,1 -1,1 z" /></g><g
             id="g268"><path
               id="path266"
               d="m 61.501,20 c -0.323,0 -0.641,-0.156 -0.833,-0.445 l -4,-6 c -0.307,-0.46 -0.183,-1.08 0.277,-1.387 0.46,-0.306 1.08,-0.183 1.387,0.277 l 4,6 c 0.307,0.46 0.183,1.08 -0.277,1.387 C 61.884,19.945 61.691,20 61.501,20 Z" /></g><g
             id="g272"><path
               id="path270"
               d="m 57.5,14 h -36 c -0.553,0 -1,-0.447 -1,-1 0,-0.553 0.447,-1 1,-1 h 36 c 0.553,0 1,0.447 1,1 0,0.553 -0.447,1 -1,1 z" /></g><g
             id="g276"><path
               id="path274"
               d="m 14.5,14 h -4 c -0.553,0 -1,-0.447 -1,-1 0,-0.553 0.447,-1 1,-1 h 4 c 0.553,0 1,0.447 1,1 0,0.553 -0.447,1 -1,1 z" /></g><g
             id="g280"><path
               id="path278"
               d="m 14.5,20 h -4 c -0.553,0 -1,-0.447 -1,-1 0,-0.553 0.447,-1 1,-1 h 4 c 0.553,0 1,0.447 1,1 0,0.553 -0.447,1 -1,1 z" /></g><g
             id="g284"><path
               id="path282"
               d="M 14.5,6 C 14.266,6 14.031,5.919 13.842,5.753 13.426,5.389 13.384,4.757 13.747,4.342 l 3.5,-4 c 0.365,-0.418 0.996,-0.459 1.411,-0.095 0.416,0.364 0.458,0.996 0.095,1.411 l -3.5,4 C 15.055,5.885 14.778,6 14.5,6 Z" /></g><g
             id="g288"><path
               id="path286"
               d="M 21.5,6 C 21.222,6 20.945,5.885 20.747,5.658 l -3.5,-4 c -0.363,-0.415 -0.321,-1.047 0.095,-1.411 0.414,-0.364 1.045,-0.323 1.411,0.095 l 3.5,4 C 22.616,4.757 22.574,5.389 22.158,5.753 21.969,5.919 21.734,6 21.5,6 Z" /></g><g
             id="g292"><path
               id="path290"
               d="m 10.5,23 h -8 c -0.553,0 -1,-0.447 -1,-1 0,-0.553 0.447,-1 1,-1 h 7 V 10 h -4 c -0.553,0 -1,-0.447 -1,-1 0,-0.553 0.447,-1 1,-1 h 5 c 0.553,0 1,0.447 1,1 v 13 c 0,0.553 -0.447,1 -1,1 z" /></g><g
             id="g296"><path
               id="path294"
               d="m 2.5,13 c -0.553,0 -1,-0.447 -1,-1 0,-2.206 1.794,-4 4,-4 0.553,0 1,0.447 1,1 0,0.553 -0.447,1 -1,1 -1.103,0 -2,0.897 -2,2 0,0.553 -0.447,1 -1,1 z" /></g><g
             id="g300"><path
               id="path298"
               d="m 2.5,23 c -0.553,0 -1,-0.447 -1,-1 V 12 c 0,-0.553 0.447,-1 1,-1 0.553,0 1,0.447 1,1 v 10 c 0,0.553 -0.447,1 -1,1 z" /></g><g
             id="g308"><path
               id="path306"
               d="m 44.5,32 c -0.553,0 -1,-0.447 -1,-1 V 19 c 0,-0.553 0.447,-1 1,-1 0.553,0 1,0.447 1,1 v 12 c 0,0.553 -0.447,1 -1,1 z" /></g></g><g
           id="g236"
           transform="matrix(0.7111411,0,0,0.7111411,7.5718601,8.9435678)"><path
             id="path376"
             d="m 45.823684,31.146899 c -5.530851,0 -10.01059,0.625662 -10.01059,5.005295 v 12.513238 c 0,1.101165 0.488016,2.089711 1.251324,2.777939 v 2.227357 c 0,0.688228 0.563096,1.251323 1.251324,1.251323 h 1.251323 c 0.688229,0 1.251324,-0.563095 1.251324,-1.251323 V 52.419404 H 50.82898 v 1.251324 c 0,0.688228 0.563095,1.251323 1.251324,1.251323 h 1.251323 c 0.688228,0 1.251324,-0.563095 1.251324,-1.251323 v -2.227357 c 0.763308,-0.688228 1.251324,-1.676774 1.251324,-2.777939 V 36.152194 c 0,-4.379633 -4.479739,-5.005295 -10.010591,-5.005295 z m 7.082493,3.741458 H 38.741192 c 0.688228,-0.663201 2.465108,-1.23881 7.082492,-1.23881 4.617385,0 6.394265,0.575609 7.082493,1.23881 z m 0.42545,2.502648 v 3.766484 H 38.315742 v -3.766484 z m -0.42545,12.187894 -0.362884,0.337857 H 39.104076 l -0.362884,-0.337857 c -0.162672,-0.137646 -0.42545,-0.450477 -0.42545,-0.913467 v -5.005295 h 15.015885 v 5.005295 c 0,0.46299 -0.262778,0.775821 -0.42545,0.913467 z"
             style="stroke-width:1.25132" /><circle
             id="circle378"
             cy="46.788448"
             cx="41.444054"
             style="stroke-width:1.25132"
             r="1.8769858" /><circle
             id="circle380"
             cy="46.788448"
             cx="50.203323"
             style="stroke-width:1.25132"
             r="1.8769858" /></g></g></g></g></svg>
