<?xml version="1.0" encoding="UTF-8"?>
<svg width="100px" height="100px" enable-background="new 0 0 64 64" fill="#000000" version="1.1" viewBox="0 0 64 64" xml:space="preserve" xmlns="http://www.w3.org/2000/svg" xmlns:cc="http://creativecommons.org/ns#" xmlns:dc="http://purl.org/dc/elements/1.1/" xmlns:rdf="http://www.w3.org/1999/02/22-rdf-syntax-ns#"><metadata><rdf:RDF><cc:Work rdf:about=""><dc:format>image/svg+xml</dc:format><dc:type rdf:resource="http://purl.org/dc/dcmitype/StillImage"/><dc:title/></cc:Work></rdf:RDF></metadata><ellipse cx="32" cy="32" rx="30.848" ry="30.848" fill="#fff" fill-rule="evenodd" stroke="#000" stroke-opacity=".97434" stroke-width="2.3046"/><g transform="translate(.7301 .22424)"><g transform="matrix(.71114 0 0 .71114 8.5132 9.0196)"><path d="m14.5 60c-0.553 0-1-0.447-1-1v-54c0-0.553 0.447-1 1-1s1 0.447 1 1v54c0 0.553-0.447 1-1 1z"/><path d="m21.5 60c-0.553 0-1-0.447-1-1v-54c0-0.553 0.447-1 1-1s1 0.447 1 1v54c0 0.553-0.447 1-1 1z"/><path d="m24.5 60h-13c-0.553 0-1-0.447-1-1s0.447-1 1-1h13c0.553 0 1 0.447 1 1s-0.447 1-1 1z"/><path d="m24.5 64c-0.553 0-1-0.447-1-1v-4c0-0.553 0.447-1 1-1s1 0.447 1 1v4c0 0.553-0.447 1-1 1z"/><path d="m11.5 64c-0.553 0-1-0.447-1-1v-4c0-0.553 0.447-1 1-1s1 0.447 1 1v4c0 0.553-0.447 1-1 1z"/><path d="m26.5 64h-17c-0.553 0-1-0.447-1-1s0.447-1 1-1h17c0.553 0 1 0.447 1 1s-0.447 1-1 1z"/><path d="m61.5 20h-39.999c-0.553 0-1-0.447-1-1s0.447-1 1-1h39.999c0.553 0 1 0.447 1 1s-0.447 1-1 1z"/><path d="m61.501 20c-0.323 0-0.641-0.156-0.833-0.445l-4-6c-0.307-0.46-0.183-1.08 0.277-1.387 0.46-0.306 1.08-0.183 1.387 0.277l4 6c0.307 0.46 0.183 1.08-0.277 1.387-0.171 0.113-0.364 0.168-0.554 0.168z"/><path d="m57.5 14h-36c-0.553 0-1-0.447-1-1s0.447-1 1-1h36c0.553 0 1 0.447 1 1s-0.447 1-1 1z"/><path d="m14.5 14h-4c-0.553 0-1-0.447-1-1s0.447-1 1-1h4c0.553 0 1 0.447 1 1s-0.447 1-1 1z"/><path d="m14.5 20h-4c-0.553 0-1-0.447-1-1s0.447-1 1-1h4c0.553 0 1 0.447 1 1s-0.447 1-1 1z"/><path d="m14.5 6c-0.234 0-0.469-0.081-0.658-0.247-0.416-0.364-0.458-0.996-0.095-1.411l3.5-4c0.365-0.418 0.996-0.459 1.411-0.095 0.416 0.364 0.458 0.996 0.095 1.411l-3.5 4c-0.198 0.227-0.475 0.342-0.753 0.342z"/><path d="m21.5 6c-0.278 0-0.555-0.115-0.753-0.342l-3.5-4c-0.363-0.415-0.321-1.047 0.095-1.411 0.414-0.364 1.045-0.323 1.411 0.095l3.5 4c0.363 0.415 0.321 1.047-0.095 1.411-0.189 0.166-0.424 0.247-0.658 0.247z"/><path d="m10.5 23h-8c-0.553 0-1-0.447-1-1s0.447-1 1-1h7v-11h-4c-0.553 0-1-0.447-1-1s0.447-1 1-1h5c0.553 0 1 0.447 1 1v13c0 0.553-0.447 1-1 1z"/><path d="m2.5 13c-0.553 0-1-0.447-1-1 0-2.206 1.794-4 4-4 0.553 0 1 0.447 1 1s-0.447 1-1 1c-1.103 0-2 0.897-2 2 0 0.553-0.447 1-1 1z"/><path d="m2.5 23c-0.553 0-1-0.447-1-1v-10c0-0.553 0.447-1 1-1s1 0.447 1 1v10c0 0.553-0.447 1-1 1z"/><path d="m44.5 32c-0.553 0-1-0.447-1-1v-12c0-0.553 0.447-1 1-1s1 0.447 1 1v12c0 0.553-0.447 1-1 1z"/></g><g transform="matrix(.71114 0 0 .71114 7.5719 8.9436)" stroke-width="1.2513"><path d="m45.824 31.147c-5.5309 0-10.011 0.62566-10.011 5.0053v12.513c0 1.1012 0.48802 2.0897 1.2513 2.7779v2.2274c0 0.68823 0.5631 1.2513 1.2513 1.2513h1.2513c0.68823 0 1.2513-0.5631 1.2513-1.2513v-1.2513h10.011v1.2513c0 0.68823 0.5631 1.2513 1.2513 1.2513h1.2513c0.68823 0 1.2513-0.5631 1.2513-1.2513v-2.2274c0.76331-0.68823 1.2513-1.6768 1.2513-2.7779v-12.513c0-4.3796-4.4797-5.0053-10.011-5.0053zm7.0825 3.7415h-14.165c0.68823-0.6632 2.4651-1.2388 7.0825-1.2388 4.6174 0 6.3943 0.57561 7.0825 1.2388zm0.42545 2.5026v3.7665h-15.016v-3.7665zm-0.42545 12.188-0.36288 0.33786h-13.439l-0.36288-0.33786c-0.16267-0.13765-0.42545-0.45048-0.42545-0.91347v-5.0053h15.016v5.0053c0 0.46299-0.26278 0.77582-0.42545 0.91347z"/><circle cx="41.444" cy="46.788" r="1.877"/><circle cx="50.203" cy="46.788" r="1.877"/></g></g></svg>
